/* XPM */
static char * door_off[] = {
"32 32 3 1",
". c #000000",
"O c #505050",
"  c #303030",
"................................",
"................................",
"................................",
"................................",
"................................",
"................................",
"................................",
"................................",
"................................",
"................................",
"............OOOOOOOO............",
"............O      O............",
"............O      O............",
"............O      O............",
"............O      O............",
"............O      O............",
"............O      O............",
"............O      O............",
"............O      O............",
"............O      O............",
"............O      O............",
"............OOOOOOOO............",
"................................",
"................................",
"................................",
"................................",
"................................",
"................................",
"................................",
"................................",
"................................",
"................................",
};